<svg width="1249" height="1249" viewBox="0 0 1249 1249" fill="none" xmlns="http://www.w3.org/2000/svg">
<path d="M624.5 1249C969.402 1249 1249 969.402 1249 624.5C1249 279.598 969.402 0 624.5 0C279.598 0 0 279.598 0 624.5C0 969.402 279.598 1249 624.5 1249Z" fill="#EC4E4E"/>
<path d="M504.221 327.076C525.567 326.88 542.717 309.451 542.521 288.104C542.325 266.758 524.896 249.608 503.549 249.804C482.259 250 465.137 267.345 465.249 288.636C465.389 310.01 482.818 327.216 504.193 327.076C504.193 327.076 504.221 327.076 504.221 327.076ZM537.066 375.7C537.066 356.983 523.497 342.128 504.277 342.128C485.057 342.128 471.656 357.263 471.796 375.868L472.439 531.531H472.047V551.787C472.047 570.503 485.56 585.359 504.724 585.359C523.888 585.359 537.205 570.167 537.15 551.479V531.699H537.709L537.066 375.7ZM268.851 581.918C288.435 581.918 302.619 569.804 302.423 546.107V532.119H302.787L302.479 466.569H303.291L354.153 529.741L385.599 568.657C393.992 579.008 400.343 585.219 417.828 585.135C435.929 585.862 451.233 571.93 452.268 553.857C452.128 545.772 449.162 537.966 443.875 531.839H444.294L442.196 529.601L380.199 463.967C422.808 455.91 449.47 424.324 449.302 380.652C449.05 325.509 409.575 289.083 349.369 289.335L268.012 289.671C250.358 289.671 234.104 301.841 234.188 323.243L235.083 530.272H234.719V546.499C234.943 570.083 249.211 582.03 268.851 581.918ZM346.823 351.388C366.015 351.388 381.57 363.362 381.654 383.282C381.654 401.858 369.316 416.406 347.103 416.49L302.34 416.686L302.032 351.584L346.823 351.388ZM560.734 528.006V548.541C560.734 567.258 574.247 582.114 593.495 582.114C612.743 582.114 626.088 567.034 626.004 548.317V530.049H626.368L626.004 448.048C626.004 425.667 639.125 397.074 661.647 396.99C684.168 396.906 697.821 425.303 698.017 447.74L698.352 529.377V549.129C698.352 567.761 711.949 582.701 731.141 582.701C750.333 582.701 763.65 567.538 763.566 548.933V528.398H763.371L762.839 418.169C762.671 365.013 726.637 341.848 681.454 342.044C653.477 342.044 635.936 351.052 625.668 367.223C619.849 354.41 606.98 346.296 592.907 346.576C573.659 346.576 560.426 361.6 560.538 380.148L561.126 527.922L560.734 528.006ZM680.279 738.672V718.137C680.279 699.421 666.682 684.565 647.378 684.565C628.074 684.565 614.729 699.533 614.785 718.277V738.812L615.177 831.891C615.177 854.273 601.972 871.059 579.479 871.059C556.985 871.059 543.5 854.553 543.388 832.143L542.997 736.77H543.248V715.843C543.248 697.21 529.792 682.271 510.571 682.439C491.351 682.607 477.978 697.49 478.062 716.011V735.315H477.671L478.174 849.713C478.398 902.869 514.544 926.006 559.587 925.81C587.564 925.81 605.161 916.969 615.541 900.631C621.248 913.5 634.117 921.669 648.19 921.417C667.354 921.417 680.755 906.31 680.699 887.705L680.027 738.56L680.279 738.672ZM1006.01 732.238H1005.37V716.626C1005.37 692.93 991.075 681.012 971.603 681.068C952.131 681.124 938.03 693.21 938.198 716.906V733.496H938.338L938.618 798.571H937.695L885.07 732.965H884.762L854.715 695.812C846.322 685.516 840.055 679.361 822.542 679.473C804.441 678.746 789.081 692.622 787.99 710.695C788.158 719.06 791.319 727.09 796.859 733.357H796.579L797.922 734.755L798.118 735.007L860.702 801.285C818.177 809.342 791.683 841.096 791.851 884.628C792.075 939.854 831.354 976.252 891.645 975.972L973.113 975.665C990.683 975.665 1006.94 963.551 1006.88 941.785L1006.01 732.238ZM894.33 913.64C875.166 913.64 859.611 901.778 859.527 881.858C859.527 863.197 871.921 848.593 894.051 848.482L938.814 848.286L939.093 913.444L894.33 913.64ZM739.898 935.014C718.552 935.294 701.458 952.835 701.737 974.182C702.017 995.528 719.559 1012.62 740.905 1012.34C762.14 1012.06 779.178 994.717 779.066 973.454C779.01 952.192 761.748 934.958 740.457 935.014C740.262 935.014 740.066 935.014 739.87 935.014H739.898ZM707.053 886.39C707.053 905.107 720.566 919.963 739.842 919.963C759.118 919.963 772.407 904.911 772.323 886.25L771.68 732.965H771.008V712.961C771.008 694.077 757.607 678.998 738.639 679.109C719.671 679.221 706.438 694.385 706.494 713.213V733.245L707.053 886.39ZM360.811 662.575L469.278 662.267L882.916 660.589C947.123 660.309 1006.6 629.171 1006.27 546.331V529.881L1005.65 377.546C1005.65 358.858 992.138 343.778 972.75 343.974C956.859 343.974 946.787 355.165 942.227 364.985C927.539 347.219 910.697 340.225 885.965 340.337C828.892 340.589 785.249 392.794 785.444 458.092C785.612 485.09 792.187 511.248 805.644 531.503C821.367 555.368 843.301 571.119 877.628 570.979C899.422 570.979 925.916 565.915 940.045 545.8H940.94C941.136 582.169 923.147 603.544 882.58 603.74L468.998 605.278L360.308 605.502C296.129 605.866 236.65 636.976 236.986 719.984V735.231H236.398L237.041 887.593C237.041 906.366 250.638 921.333 269.942 921.166C285.917 921.166 295.821 910.171 300.297 900.183C315.153 918.088 332.051 925.082 356.699 924.942C413.715 924.691 457.415 872.402 457.248 807.104C457.248 780.022 450.477 754.143 437.076 733.804H436.796C420.933 710.472 396.286 695.028 362.602 695.196C340.752 695.196 317.307 700.4 303.067 720.515H302.312C302.228 684.201 320.049 662.631 360.783 662.491L360.811 662.575ZM895.869 513.43C866.801 513.43 850.798 489.426 850.658 457.812C850.658 427.821 866.326 402.866 895.421 402.726C924.517 402.586 940.38 427.429 940.464 457.448C940.604 488.978 924.685 513.206 895.841 513.346L895.869 513.43ZM346.851 751.626C375.835 751.626 391.81 775.602 391.949 807.356C391.949 837.319 376.282 862.386 347.186 862.498C318.09 862.61 302.284 837.738 302.172 807.719C302.116 775.937 317.923 751.737 346.851 751.626Z" fill="white"/>
</svg>
