<svg width="667" height="667" viewBox="0 0 667 667" fill="none" xmlns="http://www.w3.org/2000/svg">
<path fill-rule="evenodd" clip-rule="evenodd" d="M667 333.5C667 517.687 517.687 667 333.5 667C149.313 667 0 517.687 0 333.5C0 149.313 149.313 0 333.5 0C517.687 0 667 149.313 667 333.5ZM289.721 153.854C289.826 165.254 280.667 174.562 269.268 174.667H269.253C257.838 174.741 248.53 165.553 248.456 154.139C248.396 142.769 257.539 133.506 268.909 133.401C280.309 133.297 289.616 142.455 289.721 153.854ZM269.297 182.705C279.562 182.705 286.808 190.638 286.808 200.633L287.151 283.941H286.853V294.504C286.882 304.484 279.771 312.597 269.537 312.597C259.302 312.597 252.086 304.663 252.086 294.668V283.852H252.295L251.952 200.723C251.877 190.787 259.033 182.705 269.297 182.705ZM161.502 291.636C161.607 304.29 154.032 310.759 143.574 310.759C133.086 310.818 125.466 304.439 125.346 291.845V283.179H125.541L125.063 172.62C125.018 161.19 133.698 154.691 143.126 154.691L186.572 154.512C218.724 154.378 239.805 173.83 239.939 203.277C240.029 226.6 225.791 243.468 203.037 247.771L236.145 282.82L237.265 284.016H237.041C239.865 287.288 241.448 291.456 241.523 295.773C240.97 305.425 232.798 312.865 223.132 312.478C213.794 312.522 210.402 309.205 205.92 303.678L189.127 282.896L161.966 249.159H161.532L161.697 284.165H161.502V291.636ZM203.814 204.682C203.769 194.045 195.462 187.65 185.213 187.65L161.293 187.755L161.458 222.521L185.362 222.416C197.225 222.371 203.814 214.603 203.814 204.682ZM299.447 292.936V281.969L299.656 281.924L299.343 203.009C299.283 193.104 306.35 185.08 316.629 185.08C324.144 184.931 331.016 189.264 334.124 196.106C339.607 187.471 348.975 182.66 363.915 182.66C388.044 182.556 407.287 194.926 407.377 223.312L407.661 282.178H407.765V293.145C407.81 303.08 400.698 311.178 390.449 311.178C380.2 311.178 372.939 303.199 372.939 293.249V282.701L372.76 239.104C372.655 227.122 365.364 211.958 353.337 212.003C341.31 212.048 334.303 227.316 334.303 239.27L334.497 283.06H334.303V292.815C334.348 302.811 327.221 310.863 316.942 310.863C306.663 310.863 299.447 302.931 299.447 292.936ZM363.288 383.504V394.47L363.153 394.41L363.512 474.058C363.542 483.993 356.385 492.062 346.151 492.062C338.636 492.195 331.763 487.833 328.716 480.96C323.173 489.686 313.775 494.406 298.835 494.406C274.781 494.512 255.478 482.155 255.358 453.769L255.089 392.678H255.298V382.368C255.253 372.478 262.395 364.529 272.659 364.44C282.923 364.351 290.109 372.328 290.109 382.279V393.454H289.975L290.184 444.386C290.244 456.354 297.445 465.168 309.457 465.168C321.469 465.168 328.521 456.204 328.521 444.252L328.312 394.545V383.579C328.282 373.568 335.409 365.575 345.718 365.575C356.027 365.575 363.288 373.509 363.288 383.504ZM536.895 391.034H537.239L537.702 502.938C537.732 514.562 529.052 521.03 519.669 521.03L476.162 521.195C443.966 521.345 422.99 501.907 422.87 472.414C422.78 449.167 436.929 432.21 459.638 427.907L426.217 392.513L426.112 392.379L425.395 391.632H425.544C422.586 388.285 420.898 383.997 420.808 379.529C421.391 369.878 429.593 362.468 439.26 362.856C448.612 362.797 451.959 366.083 456.441 371.581L472.487 391.423H472.651L500.754 426.458H501.247L501.098 391.706H501.023V382.847C500.934 370.192 508.464 363.737 518.862 363.708C529.261 363.678 536.895 370.043 536.895 382.697V391.034ZM459.011 470.936C459.056 481.573 467.363 487.907 477.597 487.907L501.501 487.803L501.352 453.007L477.447 453.111C465.63 453.171 459.011 460.97 459.011 470.936ZM374.747 520.238C374.598 508.839 383.726 499.472 395.126 499.322H395.424C406.794 499.292 416.012 508.495 416.042 519.851C416.102 531.205 407.003 540.468 395.663 540.617C384.264 540.767 374.896 531.638 374.747 520.238ZM395.096 491.284C384.802 491.284 377.586 483.351 377.586 473.355L377.287 391.571V380.874C377.257 370.819 384.324 362.722 394.453 362.662C404.583 362.603 411.739 370.655 411.739 380.74V391.423H412.098L412.442 473.281C412.486 483.246 405.39 491.284 395.096 491.284ZM250.607 353.668L192.683 353.832L192.668 353.787C170.915 353.862 161.398 365.381 161.443 384.773H161.846C169.451 374.031 181.971 371.253 193.639 371.253C211.627 371.163 224.79 379.41 233.261 391.87H233.411C240.567 402.732 244.183 416.552 244.183 431.015C244.272 465.886 220.935 493.809 190.487 493.943C177.324 494.019 168.3 490.283 160.367 480.722C157.976 486.055 152.688 491.927 144.156 491.927C133.848 492.017 126.587 484.023 126.587 473.998L126.243 392.633H126.557V384.49C126.377 340.162 158.141 323.548 192.414 323.354L250.458 323.234L471.322 322.412C492.985 322.308 502.592 310.894 502.488 291.471H502.009C494.464 302.213 480.316 304.917 468.677 304.917C450.345 304.992 438.632 296.581 430.236 283.836C423.049 273.02 419.538 259.05 419.449 244.633C419.344 209.762 442.651 181.883 473.13 181.748C486.337 181.688 495.331 185.424 503.175 194.911C505.61 189.667 510.989 183.69 519.475 183.69C529.828 183.586 537.045 191.639 537.045 201.619L537.373 282.97V291.755C537.553 335.993 505.789 352.622 471.501 352.771L250.607 353.668ZM454.275 244.483C454.349 261.366 462.895 274.185 478.418 274.185L478.404 274.14C493.807 274.065 502.308 261.127 502.234 244.289C502.189 228.258 493.718 214.991 478.179 215.065C462.641 215.141 454.275 228.467 454.275 244.483ZM209.312 431.149C209.237 414.191 200.706 401.388 185.228 401.388C169.779 401.447 161.338 414.371 161.368 431.343C161.428 447.374 169.869 460.656 185.407 460.597C200.945 460.537 209.312 447.15 209.312 431.149Z" fill="#151F32"/>
</svg>
