<svg width="4574" height="1094" viewBox="0 0 4574 1094" fill="none" xmlns="http://www.w3.org/2000/svg">
<g id="Group 354">
<path id="0" d="M2191.68 883.59C2130.87 883.59 2078.45 869.277 2034.43 840.65C1990.41 811.798 1956.48 770.437 1932.66 716.565C1908.83 662.468 1897.03 597.439 1897.26 521.477C1897.49 445.516 1909.4 381.05 1933 328.08C1956.82 274.885 1990.63 234.425 2034.43 206.7C2078.45 178.75 2130.87 164.774 2191.68 164.774C2252.49 164.774 2304.91 178.75 2348.93 206.7C2393.18 234.425 2427.22 274.885 2451.05 328.08C2474.87 381.276 2486.67 445.741 2486.44 521.477C2486.44 597.664 2474.53 662.806 2450.71 716.903C2426.88 771 2392.96 812.362 2348.93 840.988C2305.14 869.389 2252.72 883.59 2191.68 883.59ZM2191.68 746.656C2227.99 746.656 2257.37 728.286 2279.84 691.545C2302.3 654.579 2313.42 597.889 2313.19 521.477C2313.19 471.437 2308.09 430.188 2297.88 397.73C2287.67 365.046 2273.48 340.703 2255.33 324.699C2237.18 308.695 2215.96 300.693 2191.68 300.693C2155.6 300.693 2126.44 318.839 2104.21 355.129C2081.97 391.193 2070.74 446.643 2070.51 521.477C2070.28 572.193 2075.16 614.231 2085.14 647.591C2095.36 680.951 2109.65 705.858 2128.03 722.313C2146.41 738.542 2167.63 746.656 2191.68 746.656Z" fill="#ECA34E"/>
<path id="4" d="M1237.36 750.492C1230.85 750.492 1225.58 745.216 1225.58 738.708V622.882C1225.58 620.643 1226.21 618.451 1227.41 616.561L1507.35 176.129C1509.51 172.727 1513.26 170.666 1517.3 170.666H1615.65C1622.16 170.666 1627.44 175.942 1627.44 182.45V336.768C1627.44 343.276 1622.16 348.552 1615.65 348.552H1566.27C1562.23 348.552 1558.47 350.623 1556.31 354.04L1393.5 611.634C1393.07 612.307 1392.85 613.087 1392.85 613.884V613.884C1392.85 616.21 1394.73 618.096 1397.06 618.096H1794.15C1800.65 618.096 1805.93 623.372 1805.93 629.88V738.708C1805.93 745.216 1800.65 750.492 1794.15 750.492H1237.36ZM1573.6 865.914C1567.1 865.914 1561.82 860.638 1561.82 854.13V710.434L1565.22 653.062V182.45C1565.22 175.942 1570.5 170.666 1577 170.666H1710.85C1717.36 170.666 1722.63 175.942 1722.63 182.45V854.13C1722.63 860.638 1717.36 865.914 1710.85 865.914H1573.6Z" fill="#EC4E4E"/>
<path id="5" d="M2589.56 750.492C2583.05 750.492 2577.77 745.216 2577.77 738.708V622.882C2577.77 620.643 2578.41 618.451 2579.61 616.561L2859.55 176.129C2861.71 172.727 2865.46 170.666 2869.49 170.666H2967.85C2974.36 170.666 2979.64 175.942 2979.64 182.45V336.768C2979.64 343.276 2974.36 348.552 2967.85 348.552H2918.47C2914.43 348.552 2910.67 350.623 2908.51 354.04L2745.7 611.634C2745.27 612.307 2745.05 613.087 2745.05 613.884V613.884C2745.05 616.21 2746.93 618.096 2749.26 618.096H3146.34C3152.85 618.096 3158.13 623.372 3158.13 629.88V738.708C3158.13 745.216 3152.85 750.492 3146.34 750.492H2589.56ZM2925.8 865.914C2919.29 865.914 2914.02 860.638 2914.02 854.13V710.434L2917.42 653.062V182.45C2917.42 175.942 2922.69 170.666 2929.2 170.666H3063.05C3069.56 170.666 3074.83 175.942 3074.83 182.45V854.13C3074.83 860.638 3069.56 865.914 3063.05 865.914H2925.8Z" fill="#5CBE56"/>
<path id="Vector 37" d="M3 665.589C3 665.589 463.211 1075.74 830.816 1088.33C1264.97 1103.21 1375.83 453.249 1801.51 366.573C2372.79 250.25 2193.75 832.302 2776.62 820.249C3497.18 805.35 3415.9 -22.2944 4041.92 5.69413C4398.88 21.6535 4569.24 468.207 4569.24 468.207" stroke="black" stroke-width="8.83789"/>
<rect id="Rectangle 347" x="1564.36" y="170.666" width="159.082" height="695.247" fill="#EC4E4E"/>
<rect id="Rectangle 349" x="2916.56" y="170.666" width="162.028" height="695.247" fill="#5CBE56"/>
<path id="Rectangle 348" d="M2103.47 356.262L1938.5 317.965C1938.5 317.965 1929.31 337.224 1924.14 352.412C1918.96 367.6 1911.98 402.416 1911.98 402.416L2076.96 435.803C2076.96 435.803 2080.28 416.617 2084.32 401.925C2088.29 387.521 2103.47 356.262 2103.47 356.262Z" fill="#ECA34E"/>
<rect id="Rectangle 350" x="3034.4" y="618.453" width="123.73" height="132.568" rx="14.7298" fill="#5CBE56"/>
</g>
</svg>
