<svg width="306" height="188" viewBox="0 0 306 188" fill="none" xmlns="http://www.w3.org/2000/svg">
<g id="bike">
<g id="Rightwheel">
<path id="Vector 33" d="M68.8074 84.4749C68.8078 82.8353 69.1073 81.6207 69.6621 81.0562C70.599 80.1028 94.729 85.7084 103.567 109.432C112.721 134.004 101.071 153.836 100.238 153.491C99.0502 152.999 96.9577 151.829 96.0776 151.232C94.6907 150.291 107.693 131.231 98.0825 110.331C87.8192 88.0102 68.8071 85.6046 68.8074 84.4749Z" fill="#C4C4C4"/>
<g id="Exclude">
<mask id="path-2-inside-1" fill="white">
<path fill-rule="evenodd" clip-rule="evenodd" d="M60.9008 187.802C94.5354 187.802 121.802 160.535 121.802 126.901C121.802 93.2662 94.5354 66 60.9008 66C27.2662 66 0 93.2662 0 126.901C0 160.535 27.2662 187.802 60.9008 187.802ZM60.6186 181.597C90.9831 181.597 115.598 156.981 115.598 126.617C115.598 96.2523 90.9831 71.6369 60.6186 71.6369C30.254 71.6369 5.63864 96.2523 5.63864 126.617C5.63864 156.981 30.254 181.597 60.6186 181.597Z"/>
</mask>
<path fill-rule="evenodd" clip-rule="evenodd" d="M60.9008 187.802C94.5354 187.802 121.802 160.535 121.802 126.901C121.802 93.2662 94.5354 66 60.9008 66C27.2662 66 0 93.2662 0 126.901C0 160.535 27.2662 187.802 60.9008 187.802ZM60.6186 181.597C90.9831 181.597 115.598 156.981 115.598 126.617C115.598 96.2523 90.9831 71.6369 60.6186 71.6369C30.254 71.6369 5.63864 96.2523 5.63864 126.617C5.63864 156.981 30.254 181.597 60.6186 181.597Z" fill="#151F32"/>
<path d="M120.802 126.901C120.802 159.983 93.9832 186.802 60.9008 186.802V188.802C95.0877 188.802 122.802 161.088 122.802 126.901H120.802ZM60.9008 67C93.9832 67 120.802 93.8185 120.802 126.901H122.802C122.802 92.714 95.0877 65 60.9008 65V67ZM1 126.901C1 93.8185 27.8185 67 60.9008 67V65C26.714 65 -1 92.714 -1 126.901H1ZM60.9008 186.802C27.8185 186.802 1 159.983 1 126.901H-1C-1 161.088 26.714 188.802 60.9008 188.802V186.802ZM114.598 126.617C114.598 156.429 90.4308 180.597 60.6186 180.597V182.597C91.5354 182.597 116.598 157.534 116.598 126.617H114.598ZM60.6186 72.6369C90.4308 72.6369 114.598 96.8046 114.598 126.617H116.598C116.598 95.7 91.5354 70.6369 60.6186 70.6369V72.6369ZM6.63864 126.617C6.63864 96.8046 30.8063 72.6369 60.6186 72.6369V70.6369C29.7017 70.6369 4.63864 95.7 4.63864 126.617H6.63864ZM60.6186 180.597C30.8063 180.597 6.63864 156.429 6.63864 126.617H4.63864C4.63864 157.534 29.7017 182.597 60.6186 182.597V180.597Z" fill="black" mask="url(#path-2-inside-1)"/>
</g>
<circle id="Ellipse 51" cx="61.1146" cy="127.113" r="5.12849" fill="#C4C4C4"/>
<path id="Vector 32" d="M52.3533 170.065C52.3529 171.705 52.0533 172.92 51.4985 173.484C50.5617 174.438 26.4317 168.832 17.5935 145.108C8.43974 120.537 20.09 100.704 20.9222 101.049C22.1105 101.541 24.2029 102.711 25.083 103.308C26.4699 104.249 13.4681 123.31 23.0781 144.21C33.3415 166.53 52.3535 168.936 52.3533 170.065Z" fill="#C4C4C4"/>
</g>
<g id="Leftwheel">
<g id="Exclude_2">
<mask id="path-6-inside-2" fill="white">
<path fill-rule="evenodd" clip-rule="evenodd" d="M245.099 187.802C278.734 187.802 306 160.535 306 126.901C306 93.2662 278.734 66 245.099 66C211.464 66 184.198 93.2662 184.198 126.901C184.198 160.535 211.464 187.802 245.099 187.802ZM244.817 181.597C275.181 181.597 299.797 156.981 299.797 126.617C299.797 96.2523 275.181 71.6369 244.817 71.6369C214.452 71.6369 189.837 96.2523 189.837 126.617C189.837 156.981 214.452 181.597 244.817 181.597Z"/>
</mask>
<path fill-rule="evenodd" clip-rule="evenodd" d="M245.099 187.802C278.734 187.802 306 160.535 306 126.901C306 93.2662 278.734 66 245.099 66C211.464 66 184.198 93.2662 184.198 126.901C184.198 160.535 211.464 187.802 245.099 187.802ZM244.817 181.597C275.181 181.597 299.797 156.981 299.797 126.617C299.797 96.2523 275.181 71.6369 244.817 71.6369C214.452 71.6369 189.837 96.2523 189.837 126.617C189.837 156.981 214.452 181.597 244.817 181.597Z" fill="#151F32"/>
<path d="M305 126.901C305 159.983 278.181 186.802 245.099 186.802V188.802C279.286 188.802 307 161.088 307 126.901H305ZM245.099 67C278.181 67 305 93.8185 305 126.901H307C307 92.714 279.286 65 245.099 65V67ZM185.198 126.901C185.198 93.8185 212.017 67 245.099 67V65C210.912 65 183.198 92.714 183.198 126.901H185.198ZM245.099 186.802C212.017 186.802 185.198 159.983 185.198 126.901H183.198C183.198 161.088 210.912 188.802 245.099 188.802V186.802ZM298.797 126.617C298.797 156.429 274.629 180.597 244.817 180.597V182.597C275.734 182.597 300.797 157.534 300.797 126.617H298.797ZM244.817 72.6369C274.629 72.6369 298.797 96.8046 298.797 126.617H300.797C300.797 95.7 275.734 70.6369 244.817 70.6369V72.6369ZM190.837 126.617C190.837 96.8046 215.005 72.6369 244.817 72.6369V70.6369C213.9 70.6369 188.837 95.7 188.837 126.617H190.837ZM244.817 180.597C215.005 180.597 190.837 156.429 190.837 126.617H188.837C188.837 157.534 213.9 182.597 244.817 182.597V180.597Z" fill="black" mask="url(#path-6-inside-2)"/>
</g>
<path id="Vector 28" d="M236.552 170.065C236.551 171.705 236.252 172.92 235.697 173.484C234.76 174.438 210.63 168.832 201.792 145.108C192.638 120.537 204.288 100.704 205.12 101.049C206.309 101.541 208.401 102.711 209.281 103.308C210.668 104.249 197.666 123.31 207.276 144.21C217.54 166.53 236.552 168.936 236.552 170.065Z" fill="#C4C4C4"/>
<path id="Vector 31" d="M253.006 84.4749C253.006 82.8353 253.306 81.6207 253.86 81.0562C254.797 80.1028 278.927 85.7084 287.765 109.432C296.919 134.004 285.269 153.836 284.437 153.491C283.248 152.999 281.156 151.829 280.276 151.232C278.889 150.291 291.891 131.231 282.281 110.331C272.017 88.0102 253.005 85.6046 253.006 84.4749Z" fill="#C4C4C4"/>
<circle id="Ellipse 52" cx="245.313" cy="127.113" r="5.12849" fill="#C4C4C4"/>
</g>
<g id="Frame">
<rect id="Rectangle 181" x="222.662" y="15.3851" width="5.55587" height="16.2402" fill="#EC4E4E"/>
<path id="Rectangle 180" d="M115.391 26.1274L119.665 26.1275L122.418 44.6247L118.144 44.6247L115.391 26.1274Z" fill="#C4C4C4"/>
<path id="Ellipse 49" d="M141.675 28.5242C141.675 31.4091 136.346 36.7551 122.656 36.7551C97.8687 36.7551 97.8687 34.2225 97.8687 28.5242C97.8687 22.8259 97.8687 19.6602 122.656 19.6602C136.346 19.6602 141.675 25.6394 141.675 28.5242Z" fill="#090F1B"/>
<path id="Rectangle 182" d="M222.045 0C222.045 0 220.549 20.8901 222.045 21.3687C224.305 22.0918 227.501 22.1313 228.883 21.3687C230.045 20.7277 228.669 10.0433 228.883 8.97486C229.225 7.26536 232.92 7.77619 235.507 7.69274C238.094 7.60929 242.131 8.54749 242.131 8.54749C242.131 8.54749 247.744 9.82961 248.542 15.8128C249.283 21.3687 247.901 22.4372 245.978 23.7193C244.29 24.8444 238.113 22.8645 237.43 23.933C236.575 25.2701 236.912 27.993 237.43 29.4888C237.858 30.7216 250.038 33.3352 253.457 23.933C253.457 23.933 256.187 17.5223 252.602 10.6844C249.017 3.84637 240.849 2.13687 240.849 2.13687C235.341 0.759946 222.045 0 222.045 0Z" fill="#090F1B"/>
<path id="Vector 23" d="M116.887 42.9509H122.87L124.04 48.0794L221.167 39.1045C221.167 39.1045 220.739 28.3135 221.167 27.9928C222.021 27.3516 228.859 27.3171 229.5 27.9928C229.928 28.4433 229.5 37.8227 229.5 37.8227C229.5 37.8227 233.054 37.4686 235.056 36.9679C235.056 36.9679 236.727 36.7542 237.193 41.8827C237.543 45.7291 235.697 46.7973 235.697 46.7973H229.5C229.5 46.7973 248.305 121.588 248.732 125.007C249.16 128.426 248.84 129.868 245.954 130.349C243.068 130.83 242.309 129.243 241.467 126.716C240.801 124.72 221.167 49.1478 221.167 49.1478L152.573 132.058L149.795 123.725L215.183 46.7973L125.435 55.3448L140.606 120.733H133.768L119.451 55.3448L65.6023 126.503H141.889L143.384 131.417C143.384 131.417 60.515 131.511 60.0464 131.417C58.9781 131.204 57.2086 129.469 58.3369 126.93C59.1916 125.007 117.956 48.0794 117.956 48.0794L116.887 42.9509Z" fill="#EC4E4E"/>
</g>
<g id="Crank">
<path id="Rectangle 186" d="M143.873 131.925L143.17 131.533L156.976 111.341L157.939 112.091L143.873 131.925Z" fill="black"/>
<rect id="Rectangle 183" x="146.317" y="108.981" width="20.0866" height="2.99162" transform="rotate(2.96169 146.317 108.981)" fill="#C4C4C4"/>
<circle id="Ellipse 50" cx="144.239" cy="131.418" r="16.4539" fill="#C4C4C4"/>
<path id="Rectangle 185" d="M143.224 131.196L143.927 131.588L130.121 151.78L129.158 151.029L143.224 131.196Z" fill="black"/>
<rect id="Rectangle 184" x="119.398" y="150.01" width="20.0866" height="2.99162" transform="rotate(3.07272 119.398 150.01)" fill="#C4C4C4"/>
</g>
</g>
</svg>
