<svg width="1429" height="69" viewBox="0 0 1429 69" fill="none" xmlns="http://www.w3.org/2000/svg">
<g id="Group 410">
<rect id="Rectangle 351" width="362" height="5" rx="2" transform="matrix(1 0 0 -1 -14 5)" fill="#C4C4C4"/>
<rect id="Rectangle 352" width="362" height="5" rx="2" transform="matrix(1 0 0 -1 437 5)" fill="#C4C4C4"/>
<rect id="Rectangle 353" width="362" height="5" rx="2" transform="matrix(1 0 0 -1 888 5)" fill="#C4C4C4"/>
<rect id="Rectangle 359" width="362" height="5" rx="2" transform="matrix(1 0 0 -1 347 69)" fill="#C4C4C4"/>
<rect id="Rectangle 360" width="203" height="5" rx="2" transform="matrix(1 0 0 -1 920 58)" fill="#C4C4C4"/>
<rect id="Rectangle 366" width="83" height="5" rx="2" transform="matrix(1 0 0 -1 1077 32)" fill="#C4C4C4"/>
<rect id="Rectangle 367" width="83" height="5" rx="2" transform="matrix(1 0 0 -1 208 64)" fill="#C4C4C4"/>
<rect id="Rectangle 368" width="43" height="5" rx="2" transform="matrix(1 0 0 -1 62 42)" fill="#C4C4C4"/>
<rect id="Rectangle 370" width="43" height="5" rx="2" transform="matrix(1 0 0 -1 1361 19)" fill="#C4C4C4"/>
<rect id="Rectangle 354" width="244" height="5" rx="2" transform="matrix(1 0 0 -1 178 37)" fill="#C4C4C4"/>
<rect id="Rectangle 369" width="244" height="5" rx="2" transform="matrix(1 0 0 -1 1185 45)" fill="#C4C4C4"/>
<rect id="Rectangle 355" width="244" height="5" rx="2" transform="matrix(1 0 0 -1 625 37)" fill="#C4C4C4"/>
</g>
</svg>
